<?xml version="1.0" standalone="no"?>
<!DOCTYPE svg PUBLIC "-//W3C//DTD SVG 20010904//EN"
 "http://www.w3.org/TR/2001/REC-SVG-20010904/DTD/svg10.dtd">
<svg version="1.0" xmlns="http://www.w3.org/2000/svg"
 width="361.000000pt" height="89.000000pt" viewBox="0 0 361.000000 89.000000"
 preserveAspectRatio="xMidYMid meet">

<g transform="translate(0.000000,89.000000) scale(0.100000,-0.100000)"
fill="#000000" stroke="none">
<path d="M0 445 l0 -445 1805 0 1805 0 0 445 0 445 -1805 0 -1805 0 0 -445z
m471 190 c-1 -15 -24 -12 -29 3 -3 9 2 13 12 10 10 -1 17 -7 17 -13z m477 3
c19 -19 14 -46 -13 -64 -36 -24 -75 -6 -75 34 0 16 3 32 7 35 11 12 68 8 81
-5z m1302 -63 c0 -52 10 -69 26 -44 4 7 24 9 52 6 106 -12 149 -145 71 -218
-29 -27 -34 -28 -134 -28 l-105 0 0 170 0 169 45 0 45 0 0 -55z m920 -37 l0
-92 48 47 c42 41 53 47 90 47 23 0 42 -3 42 -7 0 -4 -21 -29 -47 -55 l-46 -47
57 -70 57 -71 -54 0 c-51 0 -55 2 -86 40 -26 33 -35 39 -47 29 -8 -6 -14 -24
-14 -40 0 -28 -2 -29 -45 -29 l-45 0 0 163 c0 90 3 167 7 170 3 4 24 7 45 7
l38 0 0 -92z m-2540 67 c0 -8 -6 -15 -14 -15 -17 0 -28 14 -19 24 12 12 33 6
33 -9z m-330 -3 c0 -14 -11 -21 -26 -15 -21 8 -17 23 6 23 11 0 20 -4 20 -8z
m850 -73 l65 -80 5 78 5 78 43 3 42 3 0 -160 0 -161 -37 0 c-35 1 -43 7 -103
81 l-65 80 -3 -80 -3 -81 -44 0 -45 0 0 160 0 160 38 0 c34 -1 42 -7 102 -81z
m-690 -49 l1 -45 22 30 c33 45 88 105 96 105 10 0 -6 -122 -26 -205 l-18 -70
-115 4 c-63 2 -116 5 -118 6 -2 2 -5 61 -8 131 l-6 129 35 -59 34 -58 19 24
c10 14 30 48 44 78 l25 53 7 -39 c4 -21 7 -59 8 -84z m1310 80 c0 -27 3 -30
30 -30 28 0 30 -3 30 -35 0 -32 -2 -35 -30 -35 -29 0 -30 -2 -30 -44 0 -46 17
-70 42 -61 10 4 17 -2 22 -17 12 -45 8 -48 -47 -48 -73 0 -99 27 -105 110 -3
42 -8 60 -18 60 -9 0 -14 12 -14 35 0 24 5 35 15 35 10 0 15 10 15 30 0 29 2
30 45 30 43 0 45 -1 45 -30z m-820 -145 l0 -125 -45 0 -45 0 0 118 c0 65 3
122 7 125 3 4 24 7 45 7 l38 0 0 -125z m617 105 c18 -10 39 -31 49 -45 19 -28
21 -94 4 -125 -19 -35 -70 -60 -123 -60 -88 0 -137 46 -137 128 0 94 122 155
207 102z m487 5 c38 -18 66 -62 66 -104 l0 -31 -85 0 c-88 0 -107 -10 -59 -32
19 -9 33 -9 57 0 28 11 34 9 52 -9 l20 -20 -24 -20 c-17 -14 -39 -19 -80 -19
-93 0 -143 44 -143 128 0 89 108 149 196 107z m609 1 c46 -19 68 -48 74 -97
11 -81 -44 -139 -135 -139 -64 0 -112 31 -131 86 -13 36 -12 44 6 85 31 71
109 98 186 65z m314 -6 c42 -25 65 -62 65 -102 0 -81 -50 -128 -135 -128 -88
0 -137 46 -137 128 0 94 122 155 207 102z"/>
<path d="M2266 454 c-19 -18 -21 -65 -4 -82 7 -7 24 -12 38 -12 33 0 50 17 50
51 0 32 -23 59 -50 59 -10 0 -26 -7 -34 -16z"/>
<path d="M1462 458 c-17 -17 -15 -73 2 -87 26 -21 68 -9 79 22 17 53 -44 102
-81 65z"/>
<path d="M1955 460 c-18 -20 -17 -20 33 -20 29 0 52 2 52 4 0 3 -7 12 -16 20
-21 22 -47 20 -69 -4z"/>
<path d="M2567 452 c-33 -36 -13 -92 31 -92 36 0 52 17 52 55 0 17 -5 36 -12
43 -18 18 -53 15 -71 -6z"/>
<path d="M2873 458 c-16 -18 -18 -39 -10 -70 6 -24 13 -28 42 -28 29 0 37 5
45 26 14 36 -7 78 -41 82 -14 2 -31 -3 -36 -10z"/>
</g>
</svg>
